[Header]
# KeyWord<space>Value<CR>FileType htr
DataType HTRS
FileVersion 1.0
NumSegments 32
NumFrames 4
DataFrameRate 24
EulerRotationOrder XYZ
CalibrationUnits m
RotationUnits Degrees
GlobalAxisofGravity Z
BoneLengthAxis Z
BoneLengthAxis Z
ScaleFactor 1.00
[SegmentNames&Hierarchy]
# ObjectName<tab>ParentObjectName<CR>
pelvis	GLOBAL
spine01	pelvis
spine02	spine01
spine03	spine02
neck	spine03
head	neck
Collar_left	spine03
shoulder_up_left	Collar_left
bicep_up_left	shoulder_up_left
forearm_up_left	bicep_up_left
hand_up_left	forearm_up_left
shoulder_down_left	Collar_left
bicep_down_left	shoulder_down_left
forearm_down_left	bicep_down_left
hand_down_left	forearm_down_left
Collar_right	spine03
shoulder_up_right	Collar_right
bicep_up_right	shoulder_up_right
forearm_up_right	bicep_up_right
hand_up_right	forearm_up_right
shoulder_down_right	Collar_right
bicep_down_right	shoulder_down_right
forearm_down_right	bicep_down_right
hand_down_right	forearm_down_right
hip_left	pelvis
thigh_left	hip_left
shin_left	thigh_left
foot_left	shin_left
hip_right	pelvis
thigh_right	hip_right
shin_right	thigh_right
foot_right	shin_right
[BasePosition]
# ObjectName<tab>Tx<tab>Ty<tab>Tz<tab>Rx<tab>Ry<tab>Rz<tab>BoneLength<CR>
pelvis	0.000000	-0.438872	6.292977	90.000003	-0.000000	0.000000	1.000000
spine01	0.000000	-0.438872	7.970248	90.000003	-0.000000	0.000000	1.000000
spine02	0.000000	-0.438872	10.340697	90.000003	-0.000000	0.000000	1.000000
spine03	0.000000	-0.438872	13.021563	90.000003	-0.000000	0.000000	1.000000
neck	0.000000	-0.438872	16.182161	90.000003	-0.000000	0.000000	1.000000
head	0.000000	-0.438872	17.452044	90.000003	-0.000000	0.000014	1.000000
Collar_left	0.000000	-0.438872	16.182161	114.324943	-109.283163	-3.448282	1.000000
shoulder_up_left	-2.246972	-1.353188	15.416688	89.999955	-101.168646	0.000051	1.000000
bicep_up_left	-4.544489	-1.353188	14.963074	94.597615	-95.170613	-0.305692	1.000000
forearm_up_left	-8.587797	-1.657960	14.597347	85.600206	-93.126604	-0.279561	1.000000
hand_up_left	-12.306015	-1.353188	14.394166	85.300436	-97.657908	-0.750653	1.000000
shoulder_down_left	-2.246972	-1.353188	15.416688	97.171845	-144.053812	-0.627842	1.000000
bicep_down_left	-4.260035	-1.761673	12.646806	95.982825	-137.161086	0.000016	1.000000
forearm_down_left	-6.332484	-2.081106	10.411811	78.293864	-138.751741	0.000033	1.000000
hand_down_left	-8.648752	-1.353187	7.770453	89.999989	-141.340205	0.000017	1.000000
Collar_right	0.000000	-0.438872	16.182161	114.324943	109.283163	3.448282	1.000000
shoulder_up_right	2.246972	-1.353188	15.416688	89.999955	101.168646	-0.000051	1.000000
bicep_up_right	4.544489	-1.353188	14.963074	94.597615	95.170613	0.305692	1.000000
forearm_up_right	8.587797	-1.657960	14.597347	85.600206	93.126604	0.279561	1.000000
hand_up_right	12.306015	-1.353188	14.394166	85.300436	97.657908	0.750653	1.000000
shoulder_down_right	2.246972	-1.353188	15.416688	97.171845	144.053812	0.627842	1.000000
bicep_down_right	4.260035	-1.761673	12.646806	95.982825	137.161086	-0.000016	1.000000
forearm_down_right	6.332484	-2.081106	10.411811	78.293864	138.751741	-0.000033	1.000000
hand_down_right	8.648752	-1.353187	7.770453	89.999989	141.340205	-0.000017	1.000000
hip_left	0.000000	-0.438872	6.292977	-6.241914	-0.000005	89.999996	1.000000
thigh_left	-2.600721	-0.438872	6.008523	-79.303489	-0.000003	90.000003	1.000000
shin_left	-3.000499	-0.438872	3.892051	-90.969439	1.681318	89.968611	1.000000
foot_left	-2.953466	-0.520526	1.111133	-93.081914	-75.718200	93.179995	1.000000
hip_right	0.000000	-0.438872	6.292977	-6.241914	0.000005	-89.999996	1.000000
thigh_right	2.600721	-0.438872	6.008523	-79.303489	0.000003	-90.000003	1.000000
shin_right	3.000499	-0.438872	3.892051	-90.969439	-1.681318	-89.968611	1.000000
foot_right	2.953466	-0.520526	1.111133	-93.081914	75.718200	-93.179995	1.000000
[pelvis]
# Tx<tab>Ty<tab>Tz<tab>Rx<tab>Ry<tab>Rz<tab>BoneScaleFactor<CR>
25	0.000000	0.000000	0.000000	0.000000	-0.000000	0.000000	1.000000
26	0.000000	0.000000	0.000000	0.000000	-0.000000	0.000000	1.000000
27	0.000000	0.000000	0.000000	0.000000	-0.000000	0.000000	1.000000
28	0.000000	0.000000	0.000000	0.000000	-0.000000	0.000000	1.000000
[spine01]
# Tx<tab>Ty<tab>Tz<tab>Rx<tab>Ry<tab>Rz<tab>BoneScaleFactor<CR>
25	0.000000	0.000000	0.000000	-14.929839	-0.000000	0.000000	1.000000
26	0.000000	0.000000	0.000000	-15.368124	-0.000000	0.000000	1.000000
27	0.000000	0.000000	0.000000	-15.722703	-0.000000	0.000000	1.000000
28	0.000000	0.000000	0.000000	-15.985732	-0.000000	0.000000	1.000000
[spine02]
# Tx<tab>Ty<tab>Tz<tab>Rx<tab>Ry<tab>Rz<tab>BoneScaleFactor<CR>
25	0.000000	0.000000	0.000000	-18.320249	-0.000000	0.000000	1.000000
26	0.000000	0.000000	0.000000	-18.857423	-0.000000	0.000000	1.000000
27	0.000000	0.000000	0.000000	-19.291909	-0.000000	0.000000	1.000000
28	0.000000	0.000000	0.000000	-19.614155	-0.000000	0.000000	1.000000
[spine03]
# Tx<tab>Ty<tab>Tz<tab>Rx<tab>Ry<tab>Rz<tab>BoneScaleFactor<CR>
25	0.000000	-0.000001	0.000000	-14.154182	-0.000000	0.000000	1.000000
26	0.000000	-0.000001	0.000000	-14.569794	-0.000000	0.000000	1.000000
27	0.000000	0.000000	-0.000000	-14.906048	-0.000000	0.000000	1.000000
28	0.000000	0.000000	0.000000	-15.155493	-0.000000	0.000000	1.000000
[neck]
# Tx<tab>Ty<tab>Tz<tab>Rx<tab>Ry<tab>Rz<tab>BoneScaleFactor<CR>
25	0.000000	0.000001	0.000000	0.000000	-0.000000	0.000000	1.000000
26	0.000000	0.000000	-0.000001	-0.000002	-0.000000	0.000000	1.000000
27	0.000000	-0.000001	0.000000	-0.000002	-0.000000	0.000000	1.000000
28	0.000000	0.000000	0.000000	0.000000	-0.000000	0.000000	1.000000
[head]
# Tx<tab>Ty<tab>Tz<tab>Rx<tab>Ry<tab>Rz<tab>BoneScaleFactor<CR>
25	-0.000000	0.000001	0.000001	-2.404724	0.000000	0.000000	1.000000
26	0.000000	0.000000	0.000000	-2.475479	-0.000000	0.000000	1.000000
27	-0.000000	0.000000	0.000001	-2.532745	0.000000	0.000000	1.000000
28	0.000000	0.000000	0.000000	-2.575239	-0.000000	0.000000	1.000000
[Collar_left]
# Tx<tab>Ty<tab>Tz<tab>Rx<tab>Ry<tab>Rz<tab>BoneScaleFactor<CR>
25	0.000000	0.000000	-0.000001	0.000001	0.000003	0.000001	1.000000
26	-0.000001	0.000000	0.000000	0.000001	-0.000000	-0.000002	1.000000
27	0.000000	0.000000	0.000000	-0.000001	-0.000002	-0.000002	1.000000
28	0.000001	0.000000	0.000000	0.000000	-0.000000	0.000001	1.000000
[shoulder_up_left]
# Tx<tab>Ty<tab>Tz<tab>Rx<tab>Ry<tab>Rz<tab>BoneScaleFactor<CR>
25	0.000000	0.000000	0.000001	-0.000003	0.000007	-35.345642	1.000000
26	-0.000002	0.000000	-0.000001	0.000000	-0.000000	-36.372079	1.000000
27	0.000000	-0.000000	-0.000001	0.000001	-0.000002	-37.200823	1.000000
28	0.000000	0.000000	0.000001	-0.000002	-0.000000	-37.814588	1.000000
[bicep_up_left]
# Tx<tab>Ty<tab>Tz<tab>Rx<tab>Ry<tab>Rz<tab>BoneScaleFactor<CR>
25	0.000001	0.000001	-0.000001	0.000002	-0.000000	0.000000	1.000000
26	0.000000	0.000000	0.000000	-0.000002	-0.000000	-0.000002	1.000000
27	0.000000	0.000000	0.000000	0.000000	-0.000000	0.000000	1.000000
28	-0.000002	0.000001	0.000000	0.000000	-0.000000	-0.000002	1.000000
[forearm_up_left]
# Tx<tab>Ty<tab>Tz<tab>Rx<tab>Ry<tab>Rz<tab>BoneScaleFactor<CR>
25	-0.000002	0.000001	0.000000	-0.000003	0.000003	0.000000	1.000000
26	-0.000001	0.000001	0.000002	-0.000001	-0.000002	0.000000	1.000000
27	0.000000	0.000000	0.000000	0.000000	-0.000000	0.000003	1.000000
28	-0.000000	-0.000001	0.000000	0.000001	-0.000002	-0.000002	1.000000
[hand_up_left]
# Tx<tab>Ty<tab>Tz<tab>Rx<tab>Ry<tab>Rz<tab>BoneScaleFactor<CR>
25	0.000000	0.000000	0.000001	-0.885742	-36.590870	-6.694297	1.000000
26	0.000000	0.000000	0.000000	-0.836459	-37.652101	-6.919715	1.000000
27	0.000002	0.000002	-0.000001	-0.792261	-38.508589	-7.104920	1.000000
28	0.000001	0.000000	-0.000001	-0.756894	-39.142701	-7.244042	1.000000
[shoulder_down_left]
# Tx<tab>Ty<tab>Tz<tab>Rx<tab>Ry<tab>Rz<tab>BoneScaleFactor<CR>
25	-0.000001	0.000000	0.000000	0.000002	0.000002	0.000001	1.000000
26	0.000000	-0.000000	0.000000	-0.000002	-0.000000	0.000003	1.000000
27	0.000000	0.000000	0.000001	0.000000	0.000002	0.000001	1.000000
28	0.000001	0.000000	0.000000	0.000002	-0.000000	-0.000001	1.000000
[bicep_down_left]
# Tx<tab>Ty<tab>Tz<tab>Rx<tab>Ry<tab>Rz<tab>BoneScaleFactor<CR>
25	0.000000	-0.000000	0.000000	-36.668629	-27.445283	12.593676	1.000000
26	-0.000001	-0.000000	0.000000	-37.929932	-28.083204	13.272597	1.000000
27	0.000001	-0.000000	0.000000	-38.958508	-28.587726	13.834450	1.000000
28	0.000000	-0.000000	0.000001	-39.726153	-28.955159	14.258405	1.000000
[forearm_down_left]
# Tx<tab>Ty<tab>Tz<tab>Rx<tab>Ry<tab>Rz<tab>BoneScaleFactor<CR>
25	-0.000001	-0.000001	-0.000000	-24.023244	-20.667778	0.111420	1.000000
26	-0.000001	0.000000	-0.000000	-24.765533	-21.259157	0.254010	1.000000
27	-0.000001	0.000000	0.000000	-25.368511	-21.735586	0.375629	1.000000
28	0.000000	-0.000000	0.000000	-25.817248	-22.087778	0.469484	1.000000
[hand_down_left]
# Tx<tab>Ty<tab>Tz<tab>Rx<tab>Ry<tab>Rz<tab>BoneScaleFactor<CR>
25	0.000000	-0.000000	-0.000000	-0.000002	-0.000000	0.000002	1.000000
26	0.000000	-0.000000	0.000000	0.000000	-0.000000	0.000002	1.000000
27	0.000000	-0.000000	0.000000	0.000002	-0.000000	0.000000	1.000000
28	-0.000001	0.000000	-0.000000	0.000000	-0.000000	0.000003	1.000000
[Collar_right]
# Tx<tab>Ty<tab>Tz<tab>Rx<tab>Ry<tab>Rz<tab>BoneScaleFactor<CR>
25	0.000000	0.000000	-0.000001	0.000001	-0.000003	-0.000001	1.000000
26	0.000001	0.000000	0.000000	0.000001	-0.000000	0.000002	1.000000
27	0.000000	0.000000	0.000000	-0.000001	0.000002	0.000002	1.000000
28	-0.000001	0.000000	0.000000	0.000000	-0.000000	-0.000001	1.000000
[shoulder_up_right]
# Tx<tab>Ty<tab>Tz<tab>Rx<tab>Ry<tab>Rz<tab>BoneScaleFactor<CR>
25	0.000000	0.000000	0.000001	5.242528	-0.419751	39.733703	1.000000
26	0.000002	0.000000	-0.000001	5.383211	-0.485395	40.881838	1.000000
27	0.000000	-0.000000	-0.000001	5.495745	-0.540406	41.808080	1.000000
28	0.000000	0.000000	0.000001	5.578459	-0.582292	42.493595	1.000000
[bicep_up_right]
# Tx<tab>Ty<tab>Tz<tab>Rx<tab>Ry<tab>Rz<tab>BoneScaleFactor<CR>
25	0.000000	0.000000	0.000001	0.000002	0.000002	-0.000002	1.000000
26	0.000000	-0.000001	-0.000000	0.000002	-0.000002	0.000002	1.000000
27	0.000000	0.000000	0.000000	0.000000	-0.000000	0.000000	1.000000
28	0.000000	0.000000	0.000000	-0.000002	-0.000000	0.000002	1.000000
[forearm_up_right]
# Tx<tab>Ty<tab>Tz<tab>Rx<tab>Ry<tab>Rz<tab>BoneScaleFactor<CR>
25	-0.000001	0.000001	-0.000001	-33.309890	-17.232547	26.096667	1.000000
26	-0.000000	0.000000	0.000002	-34.405985	-17.481007	27.006013	1.000000
27	-0.000000	0.000000	0.000001	-35.294022	-17.669255	27.743861	1.000000
28	0.000000	0.000000	-0.000001	-35.953320	-17.801508	28.292250	1.000000
[hand_up_right]
# Tx<tab>Ty<tab>Tz<tab>Rx<tab>Ry<tab>Rz<tab>BoneScaleFactor<CR>
25	0.000000	0.000000	-0.000002	6.250644	52.089936	6.755119	1.000000
26	0.000001	-0.000001	0.000002	6.679517	53.563730	7.195107	1.000000
27	-0.000000	0.000001	-0.000002	7.050279	54.748747	7.574748	1.000000
28	0.000000	0.000000	0.000002	7.340292	55.623315	7.871282	1.000000
[shoulder_down_right]
# Tx<tab>Ty<tab>Tz<tab>Rx<tab>Ry<tab>Rz<tab>BoneScaleFactor<CR>
25	0.000001	0.000000	0.000000	0.000002	-0.000002	-0.000001	1.000000
26	0.000000	-0.000000	0.000000	-0.000002	-0.000000	-0.000003	1.000000
27	0.000000	0.000000	0.000001	0.000000	-0.000002	-0.000001	1.000000
28	-0.000001	0.000000	0.000000	0.000002	-0.000000	0.000001	1.000000
[bicep_down_right]
# Tx<tab>Ty<tab>Tz<tab>Rx<tab>Ry<tab>Rz<tab>BoneScaleFactor<CR>
25	0.000000	-0.000000	0.000000	-36.668629	27.445283	-12.593676	1.000000
26	0.000001	-0.000000	0.000000	-37.929932	28.083204	-13.272597	1.000000
27	-0.000001	-0.000000	0.000000	-38.958508	28.587726	-13.834450	1.000000
28	0.000000	-0.000000	0.000001	-39.726153	28.955159	-14.258405	1.000000
[forearm_down_right]
# Tx<tab>Ty<tab>Tz<tab>Rx<tab>Ry<tab>Rz<tab>BoneScaleFactor<CR>
25	0.000001	-0.000001	-0.000000	-24.023244	20.667778	-0.111420	1.000000
26	0.000001	0.000000	-0.000000	-24.765533	21.259157	-0.254010	1.000000
27	0.000001	0.000000	0.000000	-25.368511	21.735586	-0.375629	1.000000
28	0.000000	-0.000000	0.000000	-25.817248	22.087778	-0.469484	1.000000
[hand_down_right]
# Tx<tab>Ty<tab>Tz<tab>Rx<tab>Ry<tab>Rz<tab>BoneScaleFactor<CR>
25	0.000000	-0.000000	-0.000000	-0.000002	-0.000000	-0.000002	1.000000
26	0.000000	-0.000000	0.000000	0.000000	-0.000000	-0.000002	1.000000
27	0.000000	-0.000000	0.000000	0.000002	-0.000000	0.000000	1.000000
28	0.000001	0.000000	-0.000000	0.000000	-0.000000	-0.000003	1.000000
[hip_left]
# Tx<tab>Ty<tab>Tz<tab>Rx<tab>Ry<tab>Rz<tab>BoneScaleFactor<CR>
25	0.000000	-0.000000	0.000000	0.000000	-0.000000	-0.000000	1.000000
26	0.000000	-0.000000	0.000000	0.000000	-0.000000	-0.000000	1.000000
27	0.000000	-0.000000	0.000000	0.000000	-0.000000	-0.000000	1.000000
28	0.000000	-0.000000	0.000000	0.000000	-0.000000	-0.000000	1.000000
[thigh_left]
# Tx<tab>Ty<tab>Tz<tab>Rx<tab>Ry<tab>Rz<tab>BoneScaleFactor<CR>
25	0.000000	-0.000000	0.000000	0.000001	-0.000000	0.000000	1.000000
26	0.000000	-0.000000	0.000000	0.000001	-0.000000	0.000000	1.000000
27	0.000000	-0.000000	0.000000	0.000001	-0.000000	0.000000	1.000000
28	0.000000	-0.000000	0.000000	0.000001	-0.000000	0.000000	1.000000
[shin_left]
# Tx<tab>Ty<tab>Tz<tab>Rx<tab>Ry<tab>Rz<tab>BoneScaleFactor<CR>
25	0.000000	-0.000000	0.000000	0.000000	0.000000	-0.000000	1.000000
26	0.000000	-0.000000	0.000000	0.000000	0.000000	-0.000000	1.000000
27	0.000000	-0.000000	0.000000	0.000000	0.000000	-0.000000	1.000000
28	0.000000	-0.000000	0.000000	0.000000	0.000000	-0.000000	1.000000
[foot_left]
# Tx<tab>Ty<tab>Tz<tab>Rx<tab>Ry<tab>Rz<tab>BoneScaleFactor<CR>
25	0.000000	-0.000000	0.000000	-0.000000	-0.000000	0.000000	1.000000
26	0.000000	-0.000000	0.000000	-0.000000	-0.000000	0.000000	1.000000
27	0.000000	-0.000000	0.000000	-0.000000	-0.000000	0.000000	1.000000
28	0.000000	-0.000000	0.000000	-0.000000	-0.000000	0.000000	1.000000
[hip_right]
# Tx<tab>Ty<tab>Tz<tab>Rx<tab>Ry<tab>Rz<tab>BoneScaleFactor<CR>
25	-0.000000	-0.000000	0.000000	0.000000	0.000000	0.000000	1.000000
26	-0.000000	-0.000000	0.000000	0.000000	0.000000	0.000000	1.000000
27	-0.000000	-0.000000	0.000000	0.000000	0.000000	0.000000	1.000000
28	-0.000000	-0.000000	0.000000	0.000000	0.000000	0.000000	1.000000
[thigh_right]
# Tx<tab>Ty<tab>Tz<tab>Rx<tab>Ry<tab>Rz<tab>BoneScaleFactor<CR>
25	-0.000000	-0.000000	0.000000	0.000001	0.000000	-0.000000	1.000000
26	-0.000000	-0.000000	0.000000	0.000001	0.000000	-0.000000	1.000000
27	-0.000000	-0.000000	0.000000	0.000001	0.000000	-0.000000	1.000000
28	-0.000000	-0.000000	0.000000	0.000001	0.000000	-0.000000	1.000000
[shin_right]
# Tx<tab>Ty<tab>Tz<tab>Rx<tab>Ry<tab>Rz<tab>BoneScaleFactor<CR>
25	0.000000	-0.000000	0.000000	0.000000	-0.000000	0.000000	1.000000
26	0.000000	-0.000000	0.000000	0.000000	-0.000000	0.000000	1.000000
27	0.000000	-0.000000	0.000000	0.000000	-0.000000	0.000000	1.000000
28	0.000000	-0.000000	0.000000	0.000000	-0.000000	0.000000	1.000000
[foot_right]
# Tx<tab>Ty<tab>Tz<tab>Rx<tab>Ry<tab>Rz<tab>BoneScaleFactor<CR>
25	-0.000000	-0.000000	0.000000	-0.000000	-0.000000	0.000000	1.000000
26	-0.000000	-0.000000	0.000000	-0.000000	-0.000000	0.000000	1.000000
27	-0.000000	-0.000000	0.000000	-0.000000	-0.000000	0.000000	1.000000
28	-0.000000	-0.000000	0.000000	-0.000000	-0.000000	0.000000	1.000000
[EndOfFile]
